<mxfile host="Electron" agent="Mozilla/5.0 (Macintosh; Intel Mac OS X 10_15_7) AppleWebKit/537.36 (KHTML, like Gecko) draw.io/28.2.8 Chrome/140.0.7339.240 Electron/38.4.0 Safari/537.36" version="28.2.8" pages="2">
  <diagram id="8LyqSPcEujd6KH6hlyxl" name="New_architecture">
    <mxGraphModel dx="2545" dy="3112" grid="1" gridSize="7" guides="1" tooltips="1" connect="1" arrows="1" fold="1" page="1" pageScale="1" pageWidth="827" pageHeight="1169" math="0" shadow="0">
      <root>
        <mxCell id="0" />
        <mxCell id="1" parent="0" />
        <mxCell id="uuoD8QPb-tx_Q9Rzocjs-1" value="" style="whiteSpace=wrap;html=1;aspect=fixed;" parent="1" vertex="1">
          <mxGeometry x="290" width="380" height="380" as="geometry" />
        </mxCell>
        <mxCell id="uuoD8QPb-tx_Q9Rzocjs-2" value="Chart 1&amp;nbsp;&lt;div&gt;1000 k&lt;/div&gt;" style="rounded=0;whiteSpace=wrap;html=1;fillColor=#e3c800;fontColor=#000000;strokeColor=#B09500;" parent="1" vertex="1">
          <mxGeometry x="320" y="90" width="120" height="40" as="geometry" />
        </mxCell>
        <mxCell id="uuoD8QPb-tx_Q9Rzocjs-3" value="Chart - Restaurant search&lt;div&gt;1000k&lt;/div&gt;" style="rounded=0;whiteSpace=wrap;html=1;fillColor=#e3c800;fontColor=#000000;strokeColor=#B09500;" parent="1" vertex="1">
          <mxGeometry x="320" y="160" width="120" height="40" as="geometry" />
        </mxCell>
        <mxCell id="uuoD8QPb-tx_Q9Rzocjs-4" value="Chart&amp;nbsp; - Best book in 2025&amp;nbsp;&lt;div&gt;1000 k&lt;/div&gt;" style="rounded=0;whiteSpace=wrap;html=1;fillColor=#e3c800;fontColor=#000000;strokeColor=#B09500;" parent="1" vertex="1">
          <mxGeometry x="320" y="230" width="120" height="40" as="geometry" />
        </mxCell>
        <mxCell id="uuoD8QPb-tx_Q9Rzocjs-5" value="Chart - Best move of October&amp;nbsp;&lt;div&gt;1000 k&lt;/div&gt;" style="rounded=0;whiteSpace=wrap;html=1;fillColor=#e3c800;fontColor=#000000;strokeColor=#B09500;" parent="1" vertex="1">
          <mxGeometry x="320" y="300" width="120" height="40" as="geometry" />
        </mxCell>
        <mxCell id="uuoD8QPb-tx_Q9Rzocjs-6" value="Context window 4k tokens" style="text;html=1;align=center;verticalAlign=middle;whiteSpace=wrap;rounded=0;" parent="1" vertex="1">
          <mxGeometry x="380" y="10" width="160" height="30" as="geometry" />
        </mxCell>
        <mxCell id="uuoD8QPb-tx_Q9Rzocjs-12" value="window 1 day 1" style="text;html=1;align=center;verticalAlign=middle;whiteSpace=wrap;rounded=0;" parent="1" vertex="1">
          <mxGeometry x="500" y="305" width="160" height="30" as="geometry" />
        </mxCell>
        <mxCell id="uuoD8QPb-tx_Q9Rzocjs-13" value="" style="whiteSpace=wrap;html=1;aspect=fixed;" parent="1" vertex="1">
          <mxGeometry x="300" y="665" width="380" height="380" as="geometry" />
        </mxCell>
        <mxCell id="uuoD8QPb-tx_Q9Rzocjs-14" value="Chart 5&amp;nbsp;&lt;div&gt;1000 k&lt;/div&gt;" style="rounded=0;whiteSpace=wrap;html=1;fillColor=#e3c800;fontColor=#000000;strokeColor=#B09500;" parent="1" vertex="1">
          <mxGeometry x="330" y="755" width="120" height="40" as="geometry" />
        </mxCell>
        <mxCell id="uuoD8QPb-tx_Q9Rzocjs-15" value="Chart 6&lt;div&gt;1000k&lt;/div&gt;" style="rounded=0;whiteSpace=wrap;html=1;fillColor=#e3c800;fontColor=#000000;strokeColor=#B09500;" parent="1" vertex="1">
          <mxGeometry x="330" y="825" width="120" height="40" as="geometry" />
        </mxCell>
        <mxCell id="uuoD8QPb-tx_Q9Rzocjs-16" value="Chart 7&amp;nbsp;&lt;div&gt;1000 k&lt;/div&gt;" style="rounded=0;whiteSpace=wrap;html=1;fillColor=#e3c800;fontColor=#000000;strokeColor=#B09500;" parent="1" vertex="1">
          <mxGeometry x="330" y="895" width="120" height="40" as="geometry" />
        </mxCell>
        <mxCell id="uuoD8QPb-tx_Q9Rzocjs-17" value="Chart 8&amp;nbsp;&lt;div&gt;1000 k&lt;/div&gt;" style="rounded=0;whiteSpace=wrap;html=1;fillColor=#e3c800;fontColor=#000000;strokeColor=#B09500;" parent="1" vertex="1">
          <mxGeometry x="330" y="965" width="120" height="40" as="geometry" />
        </mxCell>
        <mxCell id="uuoD8QPb-tx_Q9Rzocjs-18" value="Context window 4k tokens" style="text;html=1;align=center;verticalAlign=middle;whiteSpace=wrap;rounded=0;" parent="1" vertex="1">
          <mxGeometry x="390" y="675" width="160" height="30" as="geometry" />
        </mxCell>
        <mxCell id="uuoD8QPb-tx_Q9Rzocjs-24" value="window 2 day 1" style="text;html=1;align=center;verticalAlign=middle;whiteSpace=wrap;rounded=0;" parent="1" vertex="1">
          <mxGeometry x="510" y="970" width="160" height="30" as="geometry" />
        </mxCell>
        <mxCell id="uuoD8QPb-tx_Q9Rzocjs-25" value="" style="whiteSpace=wrap;html=1;aspect=fixed;" parent="1" vertex="1">
          <mxGeometry x="310" y="1340" width="380" height="380" as="geometry" />
        </mxCell>
        <mxCell id="uuoD8QPb-tx_Q9Rzocjs-26" value="Chart 9&amp;nbsp;&lt;div&gt;1000 k&lt;/div&gt;" style="rounded=0;whiteSpace=wrap;html=1;fillColor=#e3c800;fontColor=#000000;strokeColor=#B09500;" parent="1" vertex="1">
          <mxGeometry x="340" y="1430" width="120" height="40" as="geometry" />
        </mxCell>
        <mxCell id="uuoD8QPb-tx_Q9Rzocjs-27" value="Chart 10&lt;div&gt;1000k&lt;/div&gt;" style="rounded=0;whiteSpace=wrap;html=1;fillColor=#e3c800;fontColor=#000000;strokeColor=#B09500;" parent="1" vertex="1">
          <mxGeometry x="340" y="1500" width="120" height="40" as="geometry" />
        </mxCell>
        <mxCell id="uuoD8QPb-tx_Q9Rzocjs-28" value="Chart 11&amp;nbsp;&lt;div&gt;1000 k&lt;/div&gt;" style="rounded=0;whiteSpace=wrap;html=1;fillColor=#e3c800;fontColor=#000000;strokeColor=#B09500;" parent="1" vertex="1">
          <mxGeometry x="340" y="1570" width="120" height="40" as="geometry" />
        </mxCell>
        <mxCell id="uuoD8QPb-tx_Q9Rzocjs-29" value="Chart 12&lt;div&gt;1000 k&lt;/div&gt;" style="rounded=0;whiteSpace=wrap;html=1;fillColor=#e3c800;fontColor=#000000;strokeColor=#B09500;" parent="1" vertex="1">
          <mxGeometry x="340" y="1640" width="120" height="40" as="geometry" />
        </mxCell>
        <mxCell id="uuoD8QPb-tx_Q9Rzocjs-30" value="Context window 4k tokens" style="text;html=1;align=center;verticalAlign=middle;whiteSpace=wrap;rounded=0;" parent="1" vertex="1">
          <mxGeometry x="400" y="1350" width="160" height="30" as="geometry" />
        </mxCell>
        <mxCell id="uuoD8QPb-tx_Q9Rzocjs-36" value="window 1 day 20" style="text;html=1;align=center;verticalAlign=middle;whiteSpace=wrap;rounded=0;" parent="1" vertex="1">
          <mxGeometry x="520" y="1645" width="160" height="30" as="geometry" />
        </mxCell>
        <mxCell id="uuoD8QPb-tx_Q9Rzocjs-37" value="Chart- Hotel booking&amp;nbsp;&lt;div&gt;1000 k&lt;/div&gt;" style="rounded=0;whiteSpace=wrap;html=1;fillColor=#e3c800;fontColor=#000000;strokeColor=#B09500;" parent="1" vertex="1">
          <mxGeometry x="320" y="90" width="120" height="40" as="geometry" />
        </mxCell>
        <mxCell id="9zUU7KiRwPACSc13QW3s-1" value="" style="shape=cylinder3;whiteSpace=wrap;html=1;boundedLbl=1;backgroundOutline=1;size=15;fillColor=#e3c800;fontColor=#000000;strokeColor=#B09500;" parent="1" vertex="1">
          <mxGeometry x="1026" y="530.63" width="514" height="648.75" as="geometry" />
        </mxCell>
        <mxCell id="9zUU7KiRwPACSc13QW3s-2" value="Data table&amp;nbsp;" style="swimlane;fontStyle=0;childLayout=stackLayout;horizontal=1;startSize=30;horizontalStack=0;resizeParent=1;resizeParentMax=0;resizeLast=0;collapsible=1;marginBottom=0;whiteSpace=wrap;html=1;" parent="1" vertex="1">
          <mxGeometry x="1040" y="650.63" width="140" height="120" as="geometry" />
        </mxCell>
        <mxCell id="9zUU7KiRwPACSc13QW3s-3" value="Unique id&amp;nbsp;" style="text;strokeColor=none;fillColor=none;align=left;verticalAlign=middle;spacingLeft=4;spacingRight=4;overflow=hidden;points=[[0,0.5],[1,0.5]];portConstraint=eastwest;rotatable=0;whiteSpace=wrap;html=1;" parent="9zUU7KiRwPACSc13QW3s-2" vertex="1">
          <mxGeometry y="30" width="140" height="30" as="geometry" />
        </mxCell>
        <mxCell id="9zUU7KiRwPACSc13QW3s-4" value="Summary&amp;nbsp;" style="text;strokeColor=none;fillColor=none;align=left;verticalAlign=middle;spacingLeft=4;spacingRight=4;overflow=hidden;points=[[0,0.5],[1,0.5]];portConstraint=eastwest;rotatable=0;whiteSpace=wrap;html=1;" parent="9zUU7KiRwPACSc13QW3s-2" vertex="1">
          <mxGeometry y="60" width="140" height="30" as="geometry" />
        </mxCell>
        <mxCell id="9zUU7KiRwPACSc13QW3s-5" value="Chart&amp;nbsp;" style="text;strokeColor=none;fillColor=none;align=left;verticalAlign=middle;spacingLeft=4;spacingRight=4;overflow=hidden;points=[[0,0.5],[1,0.5]];portConstraint=eastwest;rotatable=0;whiteSpace=wrap;html=1;" parent="9zUU7KiRwPACSc13QW3s-2" vertex="1">
          <mxGeometry y="90" width="140" height="30" as="geometry" />
        </mxCell>
        <mxCell id="9zUU7KiRwPACSc13QW3s-8" style="edgeStyle=orthogonalEdgeStyle;rounded=0;orthogonalLoop=1;jettySize=auto;html=1;entryX=0.5;entryY=0;entryDx=0;entryDy=0;entryPerimeter=0;" parent="1" source="uuoD8QPb-tx_Q9Rzocjs-1" target="9zUU7KiRwPACSc13QW3s-1" edge="1">
          <mxGeometry relative="1" as="geometry" />
        </mxCell>
        <mxCell id="9zUU7KiRwPACSc13QW3s-9" style="edgeStyle=orthogonalEdgeStyle;rounded=0;orthogonalLoop=1;jettySize=auto;html=1;entryX=0;entryY=0.5;entryDx=0;entryDy=0;entryPerimeter=0;" parent="1" source="uuoD8QPb-tx_Q9Rzocjs-13" target="9zUU7KiRwPACSc13QW3s-1" edge="1">
          <mxGeometry relative="1" as="geometry" />
        </mxCell>
        <mxCell id="9zUU7KiRwPACSc13QW3s-10" style="edgeStyle=orthogonalEdgeStyle;rounded=0;orthogonalLoop=1;jettySize=auto;html=1;exitX=1;exitY=0.5;exitDx=0;exitDy=0;entryX=0.5;entryY=1;entryDx=0;entryDy=0;entryPerimeter=0;" parent="1" source="uuoD8QPb-tx_Q9Rzocjs-25" target="9zUU7KiRwPACSc13QW3s-1" edge="1">
          <mxGeometry relative="1" as="geometry" />
        </mxCell>
        <mxCell id="9zUU7KiRwPACSc13QW3s-13" value="" style="shape=internalStorage;whiteSpace=wrap;html=1;backgroundOutline=1;" parent="1" vertex="1">
          <mxGeometry x="1070" y="830.63" width="370" height="330" as="geometry" />
        </mxCell>
        <mxCell id="9zUU7KiRwPACSc13QW3s-19" value="Chart - Restaurant search&lt;div&gt;1000k&lt;/div&gt;" style="rounded=0;whiteSpace=wrap;html=1;fillColor=#e3c800;fontColor=#000000;strokeColor=#B09500;" parent="1" vertex="1">
          <mxGeometry x="1110" y="940.63" width="120" height="40" as="geometry" />
        </mxCell>
        <mxCell id="aKKALhu0EyCBKWYZAUui-30" style="edgeStyle=orthogonalEdgeStyle;rounded=0;orthogonalLoop=1;jettySize=auto;html=1;exitX=1;exitY=0.5;exitDx=0;exitDy=0;" parent="1" source="9zUU7KiRwPACSc13QW3s-20" target="aKKALhu0EyCBKWYZAUui-11" edge="1">
          <mxGeometry relative="1" as="geometry">
            <mxPoint x="1770" y="110" as="targetPoint" />
            <Array as="points">
              <mxPoint x="1820" y="1031" />
              <mxPoint x="1820" y="115" />
            </Array>
          </mxGeometry>
        </mxCell>
        <mxCell id="9zUU7KiRwPACSc13QW3s-20" value="Chart&amp;nbsp; - Best book in 2025&amp;nbsp;&lt;div&gt;1000 k&lt;/div&gt;" style="rounded=0;whiteSpace=wrap;html=1;fillColor=#e3c800;fontColor=#000000;strokeColor=#B09500;" parent="1" vertex="1">
          <mxGeometry x="1110" y="1010.63" width="120" height="40" as="geometry" />
        </mxCell>
        <mxCell id="9zUU7KiRwPACSc13QW3s-21" value="Chart - Best move of October&amp;nbsp;&lt;div&gt;1000 k&lt;/div&gt;" style="rounded=0;whiteSpace=wrap;html=1;fillColor=#e3c800;fontColor=#000000;strokeColor=#B09500;" parent="1" vertex="1">
          <mxGeometry x="1110" y="1080.63" width="120" height="40" as="geometry" />
        </mxCell>
        <mxCell id="9zUU7KiRwPACSc13QW3s-22" value="Chart- Hotel booking&amp;nbsp;&lt;div&gt;1000 k&lt;/div&gt;" style="rounded=0;whiteSpace=wrap;html=1;fillColor=#e3c800;fontColor=#000000;strokeColor=#B09500;" parent="1" vertex="1">
          <mxGeometry x="1110" y="870.63" width="120" height="40" as="geometry" />
        </mxCell>
        <mxCell id="9zUU7KiRwPACSc13QW3s-23" value="Chart 5&amp;nbsp;&lt;div&gt;1000 k&lt;/div&gt;" style="rounded=0;whiteSpace=wrap;html=1;fillColor=#e3c800;fontColor=#000000;strokeColor=#B09500;" parent="1" vertex="1">
          <mxGeometry x="1290" y="870.63" width="120" height="40" as="geometry" />
        </mxCell>
        <mxCell id="9zUU7KiRwPACSc13QW3s-24" value="Chart 6&lt;div&gt;1000k&lt;/div&gt;" style="rounded=0;whiteSpace=wrap;html=1;fillColor=#e3c800;fontColor=#000000;strokeColor=#B09500;" parent="1" vertex="1">
          <mxGeometry x="1290" y="940.63" width="120" height="40" as="geometry" />
        </mxCell>
        <mxCell id="9zUU7KiRwPACSc13QW3s-25" value="Chart 7&amp;nbsp;&lt;div&gt;1000 k&lt;/div&gt;" style="rounded=0;whiteSpace=wrap;html=1;fillColor=#e3c800;fontColor=#000000;strokeColor=#B09500;" parent="1" vertex="1">
          <mxGeometry x="1290" y="1010.63" width="120" height="40" as="geometry" />
        </mxCell>
        <mxCell id="9zUU7KiRwPACSc13QW3s-26" value="Chart 8&amp;nbsp;&lt;div&gt;1000 k&lt;/div&gt;" style="rounded=0;whiteSpace=wrap;html=1;fillColor=#e3c800;fontColor=#000000;strokeColor=#B09500;" parent="1" vertex="1">
          <mxGeometry x="1290" y="1080.63" width="120" height="40" as="geometry" />
        </mxCell>
        <mxCell id="TGl_6hskBly4IPpIEudd-1" style="edgeStyle=orthogonalEdgeStyle;rounded=0;orthogonalLoop=1;jettySize=auto;html=1;entryX=0.5;entryY=0;entryDx=0;entryDy=0;" parent="1" source="9zUU7KiRwPACSc13QW3s-5" target="9zUU7KiRwPACSc13QW3s-13" edge="1">
          <mxGeometry relative="1" as="geometry" />
        </mxCell>
        <mxCell id="aKKALhu0EyCBKWYZAUui-13" style="edgeStyle=orthogonalEdgeStyle;rounded=0;orthogonalLoop=1;jettySize=auto;html=1;" parent="1" source="aKKALhu0EyCBKWYZAUui-1" target="aKKALhu0EyCBKWYZAUui-2" edge="1">
          <mxGeometry relative="1" as="geometry" />
        </mxCell>
        <mxCell id="aKKALhu0EyCBKWYZAUui-1" value="Recall Api&amp;nbsp;" style="rounded=0;whiteSpace=wrap;html=1;fillColor=#e3c800;fontColor=#000000;strokeColor=#B09500;" parent="1" vertex="1">
          <mxGeometry x="1336" y="-370" width="120" height="40" as="geometry" />
        </mxCell>
        <mxCell id="aKKALhu0EyCBKWYZAUui-14" style="edgeStyle=orthogonalEdgeStyle;rounded=0;orthogonalLoop=1;jettySize=auto;html=1;entryX=0.5;entryY=0;entryDx=0;entryDy=0;" parent="1" source="aKKALhu0EyCBKWYZAUui-2" target="aKKALhu0EyCBKWYZAUui-15" edge="1">
          <mxGeometry relative="1" as="geometry">
            <mxPoint x="1395" y="-20" as="targetPoint" />
          </mxGeometry>
        </mxCell>
        <mxCell id="aKKALhu0EyCBKWYZAUui-2" value="&lt;font style=&quot;color: rgb(17, 17, 17);&quot;&gt;What hotel did i book in hyderabad&amp;nbsp;&lt;/font&gt;" style="rhombus;whiteSpace=wrap;html=1;fillColor=#cce5ff;strokeColor=#36393d;" parent="1" vertex="1">
          <mxGeometry x="1310" y="-250" width="170" height="120" as="geometry" />
        </mxCell>
        <mxCell id="aKKALhu0EyCBKWYZAUui-3" value="" style="shape=internalStorage;whiteSpace=wrap;html=1;backgroundOutline=1;" parent="1" vertex="1">
          <mxGeometry x="1270" y="570" width="250" height="230" as="geometry" />
        </mxCell>
        <mxCell id="aKKALhu0EyCBKWYZAUui-4" value="Summary - Restaurant search&lt;div&gt;50k&lt;/div&gt;" style="rounded=0;whiteSpace=wrap;html=1;fillColor=#e3c800;fontColor=#000000;strokeColor=#B09500;" parent="1" vertex="1">
          <mxGeometry x="1310" y="670" width="120" height="40" as="geometry" />
        </mxCell>
        <mxCell id="aKKALhu0EyCBKWYZAUui-16" style="edgeStyle=orthogonalEdgeStyle;rounded=0;orthogonalLoop=1;jettySize=auto;html=1;entryX=0.5;entryY=1;entryDx=0;entryDy=0;exitX=1;exitY=0.5;exitDx=0;exitDy=0;" parent="1" source="aKKALhu0EyCBKWYZAUui-7" target="aKKALhu0EyCBKWYZAUui-17" edge="1">
          <mxGeometry relative="1" as="geometry">
            <mxPoint x="1809.93" y="420" as="targetPoint" />
            <mxPoint x="1709.9966666666667" y="780" as="sourcePoint" />
          </mxGeometry>
        </mxCell>
        <mxCell id="aKKALhu0EyCBKWYZAUui-5" value="summary - Best book in 2025&amp;nbsp;&lt;div&gt;50 k&lt;/div&gt;" style="rounded=0;whiteSpace=wrap;html=1;fillColor=#e3c800;fontColor=#000000;strokeColor=#B09500;" parent="1" vertex="1">
          <mxGeometry x="1310" y="740" width="120" height="40" as="geometry" />
        </mxCell>
        <mxCell id="aKKALhu0EyCBKWYZAUui-7" value="Summary- Hotel booking&amp;nbsp;&lt;div&gt;50 k&lt;/div&gt;" style="rounded=0;whiteSpace=wrap;html=1;fillColor=#e3c800;fontColor=#000000;strokeColor=#B09500;" parent="1" vertex="1">
          <mxGeometry x="1310" y="600" width="120" height="40" as="geometry" />
        </mxCell>
        <mxCell id="aKKALhu0EyCBKWYZAUui-8" style="edgeStyle=orthogonalEdgeStyle;rounded=0;orthogonalLoop=1;jettySize=auto;html=1;entryX=0;entryY=0.5;entryDx=0;entryDy=0;" parent="1" source="9zUU7KiRwPACSc13QW3s-4" target="aKKALhu0EyCBKWYZAUui-3" edge="1">
          <mxGeometry relative="1" as="geometry" />
        </mxCell>
        <mxCell id="aKKALhu0EyCBKWYZAUui-66" style="edgeStyle=orthogonalEdgeStyle;rounded=0;orthogonalLoop=1;jettySize=auto;html=1;exitX=0.5;exitY=1;exitDx=0;exitDy=0;entryX=0.5;entryY=0;entryDx=0;entryDy=0;" parent="1" source="aKKALhu0EyCBKWYZAUui-9" target="aKKALhu0EyCBKWYZAUui-10" edge="1">
          <mxGeometry relative="1" as="geometry" />
        </mxCell>
        <mxCell id="aKKALhu0EyCBKWYZAUui-9" value="Forget" style="rounded=0;whiteSpace=wrap;html=1;fillColor=#e3c800;fontColor=#000000;strokeColor=#B09500;" parent="1" vertex="1">
          <mxGeometry x="3129" y="-723" width="120" height="40" as="geometry" />
        </mxCell>
        <mxCell id="aKKALhu0EyCBKWYZAUui-10" value="&lt;font style=&quot;color: rgb(17, 17, 17);&quot;&gt;Does the user exist&amp;nbsp;&lt;/font&gt;" style="rhombus;whiteSpace=wrap;html=1;fillColor=#cce5ff;strokeColor=#36393d;" parent="1" vertex="1">
          <mxGeometry x="3104" y="-630" width="170" height="120" as="geometry" />
        </mxCell>
        <mxCell id="aKKALhu0EyCBKWYZAUui-20" style="edgeStyle=orthogonalEdgeStyle;rounded=0;orthogonalLoop=1;jettySize=auto;html=1;" parent="1" source="aKKALhu0EyCBKWYZAUui-11" target="aKKALhu0EyCBKWYZAUui-12" edge="1">
          <mxGeometry relative="1" as="geometry" />
        </mxCell>
        <mxCell id="aKKALhu0EyCBKWYZAUui-29" style="edgeStyle=orthogonalEdgeStyle;rounded=0;orthogonalLoop=1;jettySize=auto;html=1;" parent="1" source="aKKALhu0EyCBKWYZAUui-11" target="9zUU7KiRwPACSc13QW3s-20" edge="1">
          <mxGeometry relative="1" as="geometry" />
        </mxCell>
        <mxCell id="aKKALhu0EyCBKWYZAUui-11" value="Summarise Api&amp;nbsp;" style="rounded=0;whiteSpace=wrap;html=1;fillColor=#e3c800;fontColor=#000000;strokeColor=#B09500;" parent="1" vertex="1">
          <mxGeometry x="1636" y="95" width="120" height="40" as="geometry" />
        </mxCell>
        <mxCell id="aKKALhu0EyCBKWYZAUui-25" style="edgeStyle=orthogonalEdgeStyle;rounded=0;orthogonalLoop=1;jettySize=auto;html=1;exitX=0.5;exitY=0;exitDx=0;exitDy=0;entryX=1;entryY=1;entryDx=0;entryDy=0;" parent="1" source="aKKALhu0EyCBKWYZAUui-12" target="aKKALhu0EyCBKWYZAUui-22" edge="1">
          <mxGeometry relative="1" as="geometry">
            <Array as="points">
              <mxPoint x="1696" y="-530" />
              <mxPoint x="1692" y="-530" />
            </Array>
          </mxGeometry>
        </mxCell>
        <mxCell id="aKKALhu0EyCBKWYZAUui-12" value="&lt;font style=&quot;color: rgb(17, 17, 17);&quot;&gt;Get the summary&amp;nbsp;&lt;/font&gt;&lt;div&gt;&lt;font style=&quot;color: rgb(17, 17, 17);&quot;&gt;form message&amp;nbsp;&lt;/font&gt;&lt;/div&gt;" style="rhombus;whiteSpace=wrap;html=1;fillColor=#cce5ff;strokeColor=#36393d;" parent="1" vertex="1">
          <mxGeometry x="1611" y="-220" width="170" height="120" as="geometry" />
        </mxCell>
        <mxCell id="aKKALhu0EyCBKWYZAUui-18" style="edgeStyle=orthogonalEdgeStyle;rounded=0;orthogonalLoop=1;jettySize=auto;html=1;" parent="1" source="aKKALhu0EyCBKWYZAUui-15" target="aKKALhu0EyCBKWYZAUui-3" edge="1">
          <mxGeometry relative="1" as="geometry" />
        </mxCell>
        <mxCell id="aKKALhu0EyCBKWYZAUui-15" value="Calculate the score for match&amp;nbsp;" style="rounded=0;whiteSpace=wrap;html=1;fillColor=#e3c800;fontColor=#000000;strokeColor=#B09500;" parent="1" vertex="1">
          <mxGeometry x="1335" y="-60" width="120" height="40" as="geometry" />
        </mxCell>
        <mxCell id="aKKALhu0EyCBKWYZAUui-19" style="edgeStyle=orthogonalEdgeStyle;rounded=0;orthogonalLoop=1;jettySize=auto;html=1;entryX=0.5;entryY=1;entryDx=0;entryDy=0;" parent="1" source="aKKALhu0EyCBKWYZAUui-17" target="aKKALhu0EyCBKWYZAUui-11" edge="1">
          <mxGeometry relative="1" as="geometry" />
        </mxCell>
        <mxCell id="aKKALhu0EyCBKWYZAUui-34" value="Yes" style="edgeLabel;html=1;align=center;verticalAlign=middle;resizable=0;points=[];" parent="aKKALhu0EyCBKWYZAUui-19" vertex="1" connectable="0">
          <mxGeometry x="-0.3255" relative="1" as="geometry">
            <mxPoint as="offset" />
          </mxGeometry>
        </mxCell>
        <mxCell id="aKKALhu0EyCBKWYZAUui-31" style="edgeStyle=orthogonalEdgeStyle;rounded=0;orthogonalLoop=1;jettySize=auto;html=1;exitX=1;exitY=0.5;exitDx=0;exitDy=0;entryX=1;entryY=0.5;entryDx=0;entryDy=0;" parent="1" source="aKKALhu0EyCBKWYZAUui-17" target="aKKALhu0EyCBKWYZAUui-26" edge="1">
          <mxGeometry relative="1" as="geometry">
            <Array as="points">
              <mxPoint x="1870" y="365" />
              <mxPoint x="1870" y="-710" />
            </Array>
          </mxGeometry>
        </mxCell>
        <mxCell id="aKKALhu0EyCBKWYZAUui-32" value="No history found&amp;nbsp;" style="edgeLabel;html=1;align=center;verticalAlign=middle;resizable=0;points=[];" parent="aKKALhu0EyCBKWYZAUui-31" vertex="1" connectable="0">
          <mxGeometry x="-0.0713" y="1" relative="1" as="geometry">
            <mxPoint as="offset" />
          </mxGeometry>
        </mxCell>
        <mxCell id="aKKALhu0EyCBKWYZAUui-33" value="No" style="edgeLabel;html=1;align=center;verticalAlign=middle;resizable=0;points=[];" parent="aKKALhu0EyCBKWYZAUui-31" vertex="1" connectable="0">
          <mxGeometry x="-0.8993" y="-1" relative="1" as="geometry">
            <mxPoint as="offset" />
          </mxGeometry>
        </mxCell>
        <mxCell id="aKKALhu0EyCBKWYZAUui-17" value="&lt;font style=&quot;color: rgb(17, 17, 17);&quot;&gt;Score matches more &lt;br&gt;than 70&lt;/font&gt;" style="rhombus;whiteSpace=wrap;html=1;fillColor=#cce5ff;strokeColor=#36393d;" parent="1" vertex="1">
          <mxGeometry x="1611" y="305" width="170" height="120" as="geometry" />
        </mxCell>
        <mxCell id="aKKALhu0EyCBKWYZAUui-28" style="edgeStyle=orthogonalEdgeStyle;rounded=0;orthogonalLoop=1;jettySize=auto;html=1;" parent="1" source="aKKALhu0EyCBKWYZAUui-21" target="aKKALhu0EyCBKWYZAUui-26" edge="1">
          <mxGeometry relative="1" as="geometry" />
        </mxCell>
        <mxCell id="aKKALhu0EyCBKWYZAUui-21" value="Returning User" style="ellipse;whiteSpace=wrap;html=1;fillColor=#e3c800;strokeColor=#B09500;fontColor=#000000;" parent="1" vertex="1">
          <mxGeometry x="1590" y="-910" width="120" height="80" as="geometry" />
        </mxCell>
        <mxCell id="aKKALhu0EyCBKWYZAUui-24" style="edgeStyle=orthogonalEdgeStyle;rounded=0;orthogonalLoop=1;jettySize=auto;html=1;" parent="1" source="aKKALhu0EyCBKWYZAUui-22" target="aKKALhu0EyCBKWYZAUui-1" edge="1">
          <mxGeometry relative="1" as="geometry" />
        </mxCell>
        <mxCell id="aKKALhu0EyCBKWYZAUui-35" value="yes" style="edgeLabel;html=1;align=center;verticalAlign=middle;resizable=0;points=[];" parent="aKKALhu0EyCBKWYZAUui-24" vertex="1" connectable="0">
          <mxGeometry x="-0.6773" y="-4" relative="1" as="geometry">
            <mxPoint as="offset" />
          </mxGeometry>
        </mxCell>
        <mxCell id="aKKALhu0EyCBKWYZAUui-36" style="edgeStyle=orthogonalEdgeStyle;rounded=0;orthogonalLoop=1;jettySize=auto;html=1;exitX=1;exitY=0.5;exitDx=0;exitDy=0;entryX=1;entryY=0.5;entryDx=0;entryDy=0;" parent="1" source="aKKALhu0EyCBKWYZAUui-22" target="aKKALhu0EyCBKWYZAUui-26" edge="1">
          <mxGeometry relative="1" as="geometry" />
        </mxCell>
        <mxCell id="aKKALhu0EyCBKWYZAUui-37" value="New chart&amp;nbsp;" style="edgeLabel;html=1;align=center;verticalAlign=middle;resizable=0;points=[];" parent="aKKALhu0EyCBKWYZAUui-36" vertex="1" connectable="0">
          <mxGeometry x="-0.0515" y="3" relative="1" as="geometry">
            <mxPoint as="offset" />
          </mxGeometry>
        </mxCell>
        <mxCell id="aKKALhu0EyCBKWYZAUui-22" value="&lt;font color=&quot;#111111&quot;&gt;Returning user&amp;nbsp;&lt;/font&gt;" style="rhombus;whiteSpace=wrap;html=1;fillColor=#cce5ff;strokeColor=#36393d;" parent="1" vertex="1">
          <mxGeometry x="1565" y="-650" width="170" height="120" as="geometry" />
        </mxCell>
        <mxCell id="aKKALhu0EyCBKWYZAUui-27" style="edgeStyle=orthogonalEdgeStyle;rounded=0;orthogonalLoop=1;jettySize=auto;html=1;" parent="1" source="aKKALhu0EyCBKWYZAUui-26" target="aKKALhu0EyCBKWYZAUui-22" edge="1">
          <mxGeometry relative="1" as="geometry" />
        </mxCell>
        <mxCell id="aKKALhu0EyCBKWYZAUui-26" value="Chart app" style="rounded=0;whiteSpace=wrap;html=1;fillColor=#e3c800;fontColor=#000000;strokeColor=#B09500;" parent="1" vertex="1">
          <mxGeometry x="1590" y="-730" width="120" height="40" as="geometry" />
        </mxCell>
        <mxCell id="aKKALhu0EyCBKWYZAUui-38" value="" style="swimlane;startSize=0;fillColor=#fa6800;fontColor=#000000;strokeColor=#C73500;rounded=1;strokeWidth=5;" parent="1" vertex="1">
          <mxGeometry x="1150" y="-1010" width="840" height="1500" as="geometry" />
        </mxCell>
        <mxCell id="aKKALhu0EyCBKWYZAUui-39" value="&lt;font style=&quot;font-size: 20px;&quot;&gt;Recall&amp;nbsp;&lt;/font&gt;" style="text;html=1;align=center;verticalAlign=middle;resizable=0;points=[];autosize=1;strokeColor=none;fillColor=none;" parent="aKKALhu0EyCBKWYZAUui-38" vertex="1">
          <mxGeometry x="10" y="10" width="80" height="40" as="geometry" />
        </mxCell>
        <mxCell id="aKKALhu0EyCBKWYZAUui-44" style="edgeStyle=orthogonalEdgeStyle;rounded=0;orthogonalLoop=1;jettySize=auto;html=1;" parent="1" source="aKKALhu0EyCBKWYZAUui-40" target="aKKALhu0EyCBKWYZAUui-41" edge="1">
          <mxGeometry relative="1" as="geometry" />
        </mxCell>
        <mxCell id="aKKALhu0EyCBKWYZAUui-40" value="Returning User&lt;div&gt;summary&amp;nbsp;&lt;/div&gt;" style="ellipse;whiteSpace=wrap;html=1;fillColor=#e3c800;strokeColor=#B09500;fontColor=#000000;" parent="1" vertex="1">
          <mxGeometry x="2266" y="-910" width="120" height="80" as="geometry" />
        </mxCell>
        <mxCell id="aKKALhu0EyCBKWYZAUui-43" style="edgeStyle=orthogonalEdgeStyle;rounded=0;orthogonalLoop=1;jettySize=auto;html=1;exitX=0.5;exitY=1;exitDx=0;exitDy=0;" parent="1" source="aKKALhu0EyCBKWYZAUui-41" target="aKKALhu0EyCBKWYZAUui-42" edge="1">
          <mxGeometry relative="1" as="geometry" />
        </mxCell>
        <mxCell id="aKKALhu0EyCBKWYZAUui-41" value="Chart app" style="rounded=0;whiteSpace=wrap;html=1;fillColor=#e3c800;fontColor=#000000;strokeColor=#B09500;" parent="1" vertex="1">
          <mxGeometry x="2266" y="-770" width="120" height="40" as="geometry" />
        </mxCell>
        <mxCell id="aKKALhu0EyCBKWYZAUui-46" style="edgeStyle=orthogonalEdgeStyle;rounded=0;orthogonalLoop=1;jettySize=auto;html=1;entryX=0.5;entryY=0;entryDx=0;entryDy=0;" parent="1" source="aKKALhu0EyCBKWYZAUui-42" target="aKKALhu0EyCBKWYZAUui-45" edge="1">
          <mxGeometry relative="1" as="geometry" />
        </mxCell>
        <mxCell id="aKKALhu0EyCBKWYZAUui-42" value="&lt;font color=&quot;#111111&quot;&gt;Give me a summary of&lt;/font&gt;&lt;div&gt;&lt;font color=&quot;#111111&quot;&gt;what user did in the past&amp;nbsp;&lt;/font&gt;&lt;/div&gt;" style="rhombus;whiteSpace=wrap;html=1;fillColor=#cce5ff;strokeColor=#36393d;" parent="1" vertex="1">
          <mxGeometry x="2241" y="-690" width="170" height="120" as="geometry" />
        </mxCell>
        <mxCell id="aKKALhu0EyCBKWYZAUui-52" style="edgeStyle=orthogonalEdgeStyle;rounded=0;orthogonalLoop=1;jettySize=auto;html=1;exitX=1;exitY=0.25;exitDx=0;exitDy=0;" parent="1" source="aKKALhu0EyCBKWYZAUui-45" target="aKKALhu0EyCBKWYZAUui-51" edge="1">
          <mxGeometry relative="1" as="geometry" />
        </mxCell>
        <mxCell id="aKKALhu0EyCBKWYZAUui-45" value="Summarise api" style="rounded=0;whiteSpace=wrap;html=1;fillColor=#e3c800;fontColor=#000000;strokeColor=#B09500;" parent="1" vertex="1">
          <mxGeometry x="2269" y="-488" width="114" height="40" as="geometry" />
        </mxCell>
        <mxCell id="aKKALhu0EyCBKWYZAUui-48" value="" style="endArrow=classic;startArrow=classic;html=1;rounded=0;exitX=1;exitY=0.5;exitDx=0;exitDy=0;entryX=0.5;entryY=1;entryDx=0;entryDy=0;fillColor=#bac8d3;strokeColor=#23445d;strokeWidth=5;" parent="1" source="aKKALhu0EyCBKWYZAUui-4" target="aKKALhu0EyCBKWYZAUui-45" edge="1">
          <mxGeometry width="50" height="50" relative="1" as="geometry">
            <mxPoint x="2478" y="-97" as="sourcePoint" />
            <mxPoint x="2528" y="-147" as="targetPoint" />
            <Array as="points">
              <mxPoint x="2326" y="690" />
            </Array>
          </mxGeometry>
        </mxCell>
        <mxCell id="aKKALhu0EyCBKWYZAUui-56" value="Get summary" style="edgeLabel;html=1;align=center;verticalAlign=middle;resizable=0;points=[];" parent="aKKALhu0EyCBKWYZAUui-48" vertex="1" connectable="0">
          <mxGeometry x="0.4307" y="1" relative="1" as="geometry">
            <mxPoint y="1" as="offset" />
          </mxGeometry>
        </mxCell>
        <mxCell id="aKKALhu0EyCBKWYZAUui-49" value="" style="endArrow=classic;startArrow=classic;html=1;rounded=0;exitX=1;exitY=0.5;exitDx=0;exitDy=0;entryX=0.882;entryY=0.993;entryDx=0;entryDy=0;fillColor=#bac8d3;strokeColor=#23445d;strokeWidth=5;entryPerimeter=0;" parent="1" source="aKKALhu0EyCBKWYZAUui-5" target="aKKALhu0EyCBKWYZAUui-45" edge="1">
          <mxGeometry width="50" height="50" relative="1" as="geometry">
            <mxPoint x="1470" y="770.63" as="sourcePoint" />
            <mxPoint x="2366" y="-367.37" as="targetPoint" />
            <Array as="points">
              <mxPoint x="2370" y="760" />
            </Array>
          </mxGeometry>
        </mxCell>
        <mxCell id="aKKALhu0EyCBKWYZAUui-55" value="Get summary" style="edgeLabel;html=1;align=center;verticalAlign=middle;resizable=0;points=[];" parent="aKKALhu0EyCBKWYZAUui-49" vertex="1" connectable="0">
          <mxGeometry x="0.4494" y="-4" relative="1" as="geometry">
            <mxPoint as="offset" />
          </mxGeometry>
        </mxCell>
        <mxCell id="aKKALhu0EyCBKWYZAUui-51" value="Summarise all the summarisers&amp;nbsp;" style="rounded=0;whiteSpace=wrap;html=1;fillColor=#e3c800;fontColor=#000000;strokeColor=#B09500;" parent="1" vertex="1">
          <mxGeometry x="2471" y="-504" width="114" height="40" as="geometry" />
        </mxCell>
        <mxCell id="aKKALhu0EyCBKWYZAUui-54" value="" style="endArrow=classic;html=1;rounded=0;exitX=0.5;exitY=0;exitDx=0;exitDy=0;entryX=1;entryY=0.5;entryDx=0;entryDy=0;" parent="1" source="aKKALhu0EyCBKWYZAUui-51" target="aKKALhu0EyCBKWYZAUui-42" edge="1">
          <mxGeometry width="50" height="50" relative="1" as="geometry">
            <mxPoint x="2597" y="-300" as="sourcePoint" />
            <mxPoint x="2647" y="-350" as="targetPoint" />
            <Array as="points">
              <mxPoint x="2528" y="-630" />
            </Array>
          </mxGeometry>
        </mxCell>
        <mxCell id="aKKALhu0EyCBKWYZAUui-59" value="" style="swimlane;startSize=0;fillColor=#d5e8d4;strokeColor=#82b366;rounded=1;gradientColor=#97d077;strokeWidth=9;" parent="1" vertex="1">
          <mxGeometry x="2051" y="-1015" width="840" height="1500" as="geometry" />
        </mxCell>
        <mxCell id="aKKALhu0EyCBKWYZAUui-60" value="&lt;font style=&quot;font-size: 20px;&quot;&gt;Summarizer&lt;/font&gt;" style="text;html=1;align=center;verticalAlign=middle;resizable=0;points=[];autosize=1;strokeColor=none;fillColor=none;" parent="aKKALhu0EyCBKWYZAUui-59" vertex="1">
          <mxGeometry x="-13" y="9" width="126" height="42" as="geometry" />
        </mxCell>
        <mxCell id="aKKALhu0EyCBKWYZAUui-61" style="edgeStyle=orthogonalEdgeStyle;rounded=0;orthogonalLoop=1;jettySize=auto;html=1;" parent="1" source="aKKALhu0EyCBKWYZAUui-62" target="aKKALhu0EyCBKWYZAUui-63" edge="1">
          <mxGeometry relative="1" as="geometry" />
        </mxCell>
        <mxCell id="aKKALhu0EyCBKWYZAUui-62" value="Returning User&lt;div&gt;summary&amp;nbsp;&lt;/div&gt;" style="ellipse;whiteSpace=wrap;html=1;fillColor=#e3c800;strokeColor=#B09500;fontColor=#000000;" parent="1" vertex="1">
          <mxGeometry x="3129" y="-966" width="120" height="80" as="geometry" />
        </mxCell>
        <mxCell id="aKKALhu0EyCBKWYZAUui-65" style="edgeStyle=orthogonalEdgeStyle;rounded=0;orthogonalLoop=1;jettySize=auto;html=1;exitX=0.5;exitY=1;exitDx=0;exitDy=0;entryX=0.5;entryY=0;entryDx=0;entryDy=0;" parent="1" source="aKKALhu0EyCBKWYZAUui-63" target="aKKALhu0EyCBKWYZAUui-9" edge="1">
          <mxGeometry relative="1" as="geometry" />
        </mxCell>
        <mxCell id="aKKALhu0EyCBKWYZAUui-63" value="Chart app" style="rounded=0;whiteSpace=wrap;html=1;fillColor=#e3c800;fontColor=#000000;strokeColor=#B09500;" parent="1" vertex="1">
          <mxGeometry x="3129" y="-826" width="120" height="40" as="geometry" />
        </mxCell>
        <mxCell id="aKKALhu0EyCBKWYZAUui-68" style="edgeStyle=orthogonalEdgeStyle;rounded=0;orthogonalLoop=1;jettySize=auto;html=1;exitX=0.5;exitY=1;exitDx=0;exitDy=0;entryX=1;entryY=0.5;entryDx=0;entryDy=0;entryPerimeter=0;fillColor=#a20025;strokeColor=#6F0000;strokeWidth=5;" parent="1" source="aKKALhu0EyCBKWYZAUui-10" target="9zUU7KiRwPACSc13QW3s-1" edge="1">
          <mxGeometry relative="1" as="geometry" />
        </mxCell>
        <mxCell id="aKKALhu0EyCBKWYZAUui-70" value="Delete&amp;nbsp;" style="edgeLabel;html=1;align=center;verticalAlign=middle;resizable=0;points=[];" parent="aKKALhu0EyCBKWYZAUui-68" vertex="1" connectable="0">
          <mxGeometry x="0.0319" y="1" relative="1" as="geometry">
            <mxPoint x="1" as="offset" />
          </mxGeometry>
        </mxCell>
        <mxCell id="aKKALhu0EyCBKWYZAUui-71" value="" style="swimlane;startSize=0;fillColor=#1ba1e2;strokeColor=#006EAF;rounded=1;strokeWidth=9;fontColor=#ffffff;" parent="1" vertex="1">
          <mxGeometry x="2961" y="-1010" width="840" height="1500" as="geometry" />
        </mxCell>
        <mxCell id="aKKALhu0EyCBKWYZAUui-72" value="&lt;font style=&quot;font-size: 20px;&quot;&gt;Forget&amp;nbsp;&lt;/font&gt;" style="text;html=1;align=center;verticalAlign=middle;resizable=0;points=[];autosize=1;strokeColor=none;fillColor=none;" parent="aKKALhu0EyCBKWYZAUui-71" vertex="1">
          <mxGeometry x="8" y="9" width="84" height="42" as="geometry" />
        </mxCell>
      </root>
    </mxGraphModel>
  </diagram>
  <diagram name="Old_architecture" id="6m8i2sBr_ybCJmKeT2LW">
    <mxGraphModel dx="2678" dy="2582" grid="1" gridSize="10" guides="1" tooltips="1" connect="1" arrows="1" fold="1" page="1" pageScale="1" pageWidth="827" pageHeight="1169" math="0" shadow="0">
      <root>
        <mxCell id="0" />
        <mxCell id="1" parent="0" />
        <mxCell id="UpMeaNitS67zg2q9sJvJ-1" value="" style="whiteSpace=wrap;html=1;aspect=fixed;" vertex="1" parent="1">
          <mxGeometry x="100" y="100" width="380" height="380" as="geometry" />
        </mxCell>
        <mxCell id="UpMeaNitS67zg2q9sJvJ-2" value="Chart 1&amp;nbsp;&lt;div&gt;1000 k&lt;/div&gt;" style="rounded=0;whiteSpace=wrap;html=1;fillColor=#e3c800;fontColor=#000000;strokeColor=#B09500;" vertex="1" parent="1">
          <mxGeometry x="130" y="190" width="120" height="40" as="geometry" />
        </mxCell>
        <mxCell id="UpMeaNitS67zg2q9sJvJ-72" style="edgeStyle=orthogonalEdgeStyle;rounded=0;orthogonalLoop=1;jettySize=auto;html=1;" edge="1" parent="1" source="UpMeaNitS67zg2q9sJvJ-4" target="UpMeaNitS67zg2q9sJvJ-70">
          <mxGeometry relative="1" as="geometry" />
        </mxCell>
        <mxCell id="UpMeaNitS67zg2q9sJvJ-4" value="Chart 2&lt;div&gt;1000k&lt;/div&gt;" style="rounded=0;whiteSpace=wrap;html=1;fillColor=#e3c800;fontColor=#000000;strokeColor=#B09500;" vertex="1" parent="1">
          <mxGeometry x="130" y="260" width="120" height="40" as="geometry" />
        </mxCell>
        <mxCell id="UpMeaNitS67zg2q9sJvJ-5" value="Chart 3&amp;nbsp;&lt;div&gt;1000 k&lt;/div&gt;" style="rounded=0;whiteSpace=wrap;html=1;fillColor=#e3c800;fontColor=#000000;strokeColor=#B09500;" vertex="1" parent="1">
          <mxGeometry x="130" y="330" width="120" height="40" as="geometry" />
        </mxCell>
        <mxCell id="UpMeaNitS67zg2q9sJvJ-6" value="Chart 4&amp;nbsp;&lt;div&gt;1000 k&lt;/div&gt;" style="rounded=0;whiteSpace=wrap;html=1;fillColor=#e3c800;fontColor=#000000;strokeColor=#B09500;" vertex="1" parent="1">
          <mxGeometry x="130" y="400" width="120" height="40" as="geometry" />
        </mxCell>
        <mxCell id="UpMeaNitS67zg2q9sJvJ-7" value="Context window 4k tokens" style="text;html=1;align=center;verticalAlign=middle;whiteSpace=wrap;rounded=0;" vertex="1" parent="1">
          <mxGeometry x="190" y="110" width="160" height="30" as="geometry" />
        </mxCell>
        <mxCell id="UpMeaNitS67zg2q9sJvJ-8" value="&lt;font style=&quot;color: rgb(9, 9, 9);&quot;&gt;Summariser 1&amp;nbsp;&lt;/font&gt;&lt;div&gt;&lt;font style=&quot;color: rgb(9, 9, 9);&quot;&gt;50 toekns&lt;/font&gt;&lt;/div&gt;" style="rounded=0;whiteSpace=wrap;html=1;fillColor=#e3c800;fontColor=#000000;strokeColor=#B09500;" vertex="1" parent="1">
          <mxGeometry x="330" y="280" width="120" height="40" as="geometry" />
        </mxCell>
        <mxCell id="UpMeaNitS67zg2q9sJvJ-15" value="" style="endArrow=classic;html=1;rounded=0;entryX=0;entryY=0.5;entryDx=0;entryDy=0;" edge="1" parent="1" target="UpMeaNitS67zg2q9sJvJ-8">
          <mxGeometry width="50" height="50" relative="1" as="geometry">
            <mxPoint x="250" y="210" as="sourcePoint" />
            <mxPoint x="300" y="160" as="targetPoint" />
          </mxGeometry>
        </mxCell>
        <mxCell id="UpMeaNitS67zg2q9sJvJ-16" value="" style="endArrow=classic;html=1;rounded=0;exitX=1;exitY=0.5;exitDx=0;exitDy=0;entryX=0;entryY=0.5;entryDx=0;entryDy=0;" edge="1" parent="1" source="UpMeaNitS67zg2q9sJvJ-4" target="UpMeaNitS67zg2q9sJvJ-8">
          <mxGeometry width="50" height="50" relative="1" as="geometry">
            <mxPoint x="270" y="360" as="sourcePoint" />
            <mxPoint x="320" y="310" as="targetPoint" />
          </mxGeometry>
        </mxCell>
        <mxCell id="UpMeaNitS67zg2q9sJvJ-17" value="" style="endArrow=classic;html=1;rounded=0;entryX=0;entryY=0.5;entryDx=0;entryDy=0;exitX=1;exitY=0.5;exitDx=0;exitDy=0;" edge="1" parent="1" source="UpMeaNitS67zg2q9sJvJ-5" target="UpMeaNitS67zg2q9sJvJ-8">
          <mxGeometry width="50" height="50" relative="1" as="geometry">
            <mxPoint x="290" y="410" as="sourcePoint" />
            <mxPoint x="340" y="360" as="targetPoint" />
          </mxGeometry>
        </mxCell>
        <mxCell id="UpMeaNitS67zg2q9sJvJ-18" value="" style="endArrow=classic;html=1;rounded=0;exitX=1;exitY=0.5;exitDx=0;exitDy=0;entryX=0;entryY=0.5;entryDx=0;entryDy=0;" edge="1" parent="1" source="UpMeaNitS67zg2q9sJvJ-6" target="UpMeaNitS67zg2q9sJvJ-8">
          <mxGeometry width="50" height="50" relative="1" as="geometry">
            <mxPoint x="280" y="470" as="sourcePoint" />
            <mxPoint x="330" y="420" as="targetPoint" />
          </mxGeometry>
        </mxCell>
        <mxCell id="UpMeaNitS67zg2q9sJvJ-19" value="window 1 day 1" style="text;html=1;align=center;verticalAlign=middle;whiteSpace=wrap;rounded=0;" vertex="1" parent="1">
          <mxGeometry x="310" y="405" width="160" height="30" as="geometry" />
        </mxCell>
        <mxCell id="UpMeaNitS67zg2q9sJvJ-74" style="edgeStyle=orthogonalEdgeStyle;rounded=0;orthogonalLoop=1;jettySize=auto;html=1;" edge="1" parent="1" source="UpMeaNitS67zg2q9sJvJ-32" target="UpMeaNitS67zg2q9sJvJ-70">
          <mxGeometry relative="1" as="geometry" />
        </mxCell>
        <mxCell id="UpMeaNitS67zg2q9sJvJ-32" value="" style="whiteSpace=wrap;html=1;aspect=fixed;" vertex="1" parent="1">
          <mxGeometry x="100" y="585" width="380" height="380" as="geometry" />
        </mxCell>
        <mxCell id="UpMeaNitS67zg2q9sJvJ-73" style="edgeStyle=orthogonalEdgeStyle;rounded=0;orthogonalLoop=1;jettySize=auto;html=1;exitX=0;exitY=0.5;exitDx=0;exitDy=0;" edge="1" parent="1" source="UpMeaNitS67zg2q9sJvJ-33" target="UpMeaNitS67zg2q9sJvJ-70">
          <mxGeometry relative="1" as="geometry" />
        </mxCell>
        <mxCell id="UpMeaNitS67zg2q9sJvJ-33" value="Chart 5&amp;nbsp;&lt;div&gt;1000 k&lt;/div&gt;" style="rounded=0;whiteSpace=wrap;html=1;fillColor=#e3c800;fontColor=#000000;strokeColor=#B09500;" vertex="1" parent="1">
          <mxGeometry x="130" y="675" width="120" height="40" as="geometry" />
        </mxCell>
        <mxCell id="UpMeaNitS67zg2q9sJvJ-34" value="Chart 6&lt;div&gt;1000k&lt;/div&gt;" style="rounded=0;whiteSpace=wrap;html=1;fillColor=#e3c800;fontColor=#000000;strokeColor=#B09500;" vertex="1" parent="1">
          <mxGeometry x="130" y="745" width="120" height="40" as="geometry" />
        </mxCell>
        <mxCell id="UpMeaNitS67zg2q9sJvJ-35" value="Chart 7&amp;nbsp;&lt;div&gt;1000 k&lt;/div&gt;" style="rounded=0;whiteSpace=wrap;html=1;fillColor=#e3c800;fontColor=#000000;strokeColor=#B09500;" vertex="1" parent="1">
          <mxGeometry x="130" y="815" width="120" height="40" as="geometry" />
        </mxCell>
        <mxCell id="UpMeaNitS67zg2q9sJvJ-36" value="Chart 8&amp;nbsp;&lt;div&gt;1000 k&lt;/div&gt;" style="rounded=0;whiteSpace=wrap;html=1;fillColor=#e3c800;fontColor=#000000;strokeColor=#B09500;" vertex="1" parent="1">
          <mxGeometry x="130" y="885" width="120" height="40" as="geometry" />
        </mxCell>
        <mxCell id="UpMeaNitS67zg2q9sJvJ-37" value="Context window 4k tokens" style="text;html=1;align=center;verticalAlign=middle;whiteSpace=wrap;rounded=0;" vertex="1" parent="1">
          <mxGeometry x="190" y="595" width="160" height="30" as="geometry" />
        </mxCell>
        <mxCell id="UpMeaNitS67zg2q9sJvJ-38" value="&lt;font style=&quot;color: rgb(9, 9, 9);&quot;&gt;Summariser 2&lt;/font&gt;&lt;div&gt;&lt;font style=&quot;color: rgb(9, 9, 9);&quot;&gt;50 toekns&lt;/font&gt;&lt;/div&gt;" style="rounded=0;whiteSpace=wrap;html=1;fillColor=#e3c800;fontColor=#000000;strokeColor=#B09500;" vertex="1" parent="1">
          <mxGeometry x="330" y="765" width="120" height="40" as="geometry" />
        </mxCell>
        <mxCell id="UpMeaNitS67zg2q9sJvJ-39" value="" style="endArrow=classic;html=1;rounded=0;entryX=0;entryY=0.5;entryDx=0;entryDy=0;" edge="1" parent="1" target="UpMeaNitS67zg2q9sJvJ-38">
          <mxGeometry width="50" height="50" relative="1" as="geometry">
            <mxPoint x="250" y="695" as="sourcePoint" />
            <mxPoint x="300" y="645" as="targetPoint" />
          </mxGeometry>
        </mxCell>
        <mxCell id="UpMeaNitS67zg2q9sJvJ-40" value="" style="endArrow=classic;html=1;rounded=0;exitX=1;exitY=0.5;exitDx=0;exitDy=0;entryX=0;entryY=0.5;entryDx=0;entryDy=0;" edge="1" parent="1" source="UpMeaNitS67zg2q9sJvJ-34" target="UpMeaNitS67zg2q9sJvJ-38">
          <mxGeometry width="50" height="50" relative="1" as="geometry">
            <mxPoint x="270" y="845" as="sourcePoint" />
            <mxPoint x="320" y="795" as="targetPoint" />
          </mxGeometry>
        </mxCell>
        <mxCell id="UpMeaNitS67zg2q9sJvJ-41" value="" style="endArrow=classic;html=1;rounded=0;entryX=0;entryY=0.5;entryDx=0;entryDy=0;exitX=1;exitY=0.5;exitDx=0;exitDy=0;" edge="1" parent="1" source="UpMeaNitS67zg2q9sJvJ-35" target="UpMeaNitS67zg2q9sJvJ-38">
          <mxGeometry width="50" height="50" relative="1" as="geometry">
            <mxPoint x="290" y="895" as="sourcePoint" />
            <mxPoint x="340" y="845" as="targetPoint" />
          </mxGeometry>
        </mxCell>
        <mxCell id="UpMeaNitS67zg2q9sJvJ-42" value="" style="endArrow=classic;html=1;rounded=0;exitX=1;exitY=0.5;exitDx=0;exitDy=0;entryX=0;entryY=0.5;entryDx=0;entryDy=0;" edge="1" parent="1" source="UpMeaNitS67zg2q9sJvJ-36" target="UpMeaNitS67zg2q9sJvJ-38">
          <mxGeometry width="50" height="50" relative="1" as="geometry">
            <mxPoint x="280" y="955" as="sourcePoint" />
            <mxPoint x="330" y="905" as="targetPoint" />
          </mxGeometry>
        </mxCell>
        <mxCell id="UpMeaNitS67zg2q9sJvJ-43" value="window 2 day 1" style="text;html=1;align=center;verticalAlign=middle;whiteSpace=wrap;rounded=0;" vertex="1" parent="1">
          <mxGeometry x="310" y="890" width="160" height="30" as="geometry" />
        </mxCell>
        <mxCell id="UpMeaNitS67zg2q9sJvJ-76" style="edgeStyle=orthogonalEdgeStyle;rounded=0;orthogonalLoop=1;jettySize=auto;html=1;" edge="1" parent="1" source="UpMeaNitS67zg2q9sJvJ-44">
          <mxGeometry relative="1" as="geometry">
            <mxPoint x="-410" y="930" as="targetPoint" />
          </mxGeometry>
        </mxCell>
        <mxCell id="UpMeaNitS67zg2q9sJvJ-44" value="" style="whiteSpace=wrap;html=1;aspect=fixed;" vertex="1" parent="1">
          <mxGeometry x="100" y="1070" width="380" height="380" as="geometry" />
        </mxCell>
        <mxCell id="UpMeaNitS67zg2q9sJvJ-75" style="edgeStyle=orthogonalEdgeStyle;rounded=0;orthogonalLoop=1;jettySize=auto;html=1;" edge="1" parent="1" source="UpMeaNitS67zg2q9sJvJ-45" target="UpMeaNitS67zg2q9sJvJ-70">
          <mxGeometry relative="1" as="geometry" />
        </mxCell>
        <mxCell id="UpMeaNitS67zg2q9sJvJ-45" value="Chart 9&amp;nbsp;&lt;div&gt;1000 k&lt;/div&gt;" style="rounded=0;whiteSpace=wrap;html=1;fillColor=#e3c800;fontColor=#000000;strokeColor=#B09500;" vertex="1" parent="1">
          <mxGeometry x="130" y="1160" width="120" height="40" as="geometry" />
        </mxCell>
        <mxCell id="UpMeaNitS67zg2q9sJvJ-46" value="Chart 10&lt;div&gt;1000k&lt;/div&gt;" style="rounded=0;whiteSpace=wrap;html=1;fillColor=#e3c800;fontColor=#000000;strokeColor=#B09500;" vertex="1" parent="1">
          <mxGeometry x="130" y="1230" width="120" height="40" as="geometry" />
        </mxCell>
        <mxCell id="UpMeaNitS67zg2q9sJvJ-47" value="Chart 11&amp;nbsp;&lt;div&gt;1000 k&lt;/div&gt;" style="rounded=0;whiteSpace=wrap;html=1;fillColor=#e3c800;fontColor=#000000;strokeColor=#B09500;" vertex="1" parent="1">
          <mxGeometry x="130" y="1300" width="120" height="40" as="geometry" />
        </mxCell>
        <mxCell id="UpMeaNitS67zg2q9sJvJ-48" value="Chart 12&lt;div&gt;1000 k&lt;/div&gt;" style="rounded=0;whiteSpace=wrap;html=1;fillColor=#e3c800;fontColor=#000000;strokeColor=#B09500;" vertex="1" parent="1">
          <mxGeometry x="130" y="1370" width="120" height="40" as="geometry" />
        </mxCell>
        <mxCell id="UpMeaNitS67zg2q9sJvJ-49" value="Context window 4k tokens" style="text;html=1;align=center;verticalAlign=middle;whiteSpace=wrap;rounded=0;" vertex="1" parent="1">
          <mxGeometry x="190" y="1080" width="160" height="30" as="geometry" />
        </mxCell>
        <mxCell id="UpMeaNitS67zg2q9sJvJ-67" style="edgeStyle=orthogonalEdgeStyle;rounded=0;orthogonalLoop=1;jettySize=auto;html=1;" edge="1" parent="1" source="UpMeaNitS67zg2q9sJvJ-50" target="UpMeaNitS67zg2q9sJvJ-56">
          <mxGeometry relative="1" as="geometry" />
        </mxCell>
        <mxCell id="UpMeaNitS67zg2q9sJvJ-68" value="Summariser 3" style="edgeLabel;html=1;align=center;verticalAlign=middle;resizable=0;points=[];" vertex="1" connectable="0" parent="UpMeaNitS67zg2q9sJvJ-67">
          <mxGeometry x="-0.4992" y="2" relative="1" as="geometry">
            <mxPoint as="offset" />
          </mxGeometry>
        </mxCell>
        <mxCell id="UpMeaNitS67zg2q9sJvJ-50" value="&lt;font style=&quot;color: rgb(9, 9, 9);&quot;&gt;Summariser 3&lt;/font&gt;&lt;div&gt;&lt;font style=&quot;color: rgb(9, 9, 9);&quot;&gt;50 toekns&lt;/font&gt;&lt;/div&gt;" style="rounded=0;whiteSpace=wrap;html=1;fillColor=#e3c800;fontColor=#000000;strokeColor=#B09500;" vertex="1" parent="1">
          <mxGeometry x="330" y="1250" width="120" height="40" as="geometry" />
        </mxCell>
        <mxCell id="UpMeaNitS67zg2q9sJvJ-51" value="" style="endArrow=classic;html=1;rounded=0;entryX=0;entryY=0.5;entryDx=0;entryDy=0;" edge="1" parent="1" target="UpMeaNitS67zg2q9sJvJ-50">
          <mxGeometry width="50" height="50" relative="1" as="geometry">
            <mxPoint x="250" y="1180" as="sourcePoint" />
            <mxPoint x="300" y="1130" as="targetPoint" />
          </mxGeometry>
        </mxCell>
        <mxCell id="UpMeaNitS67zg2q9sJvJ-52" value="" style="endArrow=classic;html=1;rounded=0;exitX=1;exitY=0.5;exitDx=0;exitDy=0;entryX=0;entryY=0.5;entryDx=0;entryDy=0;" edge="1" parent="1" source="UpMeaNitS67zg2q9sJvJ-46" target="UpMeaNitS67zg2q9sJvJ-50">
          <mxGeometry width="50" height="50" relative="1" as="geometry">
            <mxPoint x="270" y="1330" as="sourcePoint" />
            <mxPoint x="320" y="1280" as="targetPoint" />
          </mxGeometry>
        </mxCell>
        <mxCell id="UpMeaNitS67zg2q9sJvJ-53" value="" style="endArrow=classic;html=1;rounded=0;entryX=0;entryY=0.5;entryDx=0;entryDy=0;exitX=1;exitY=0.5;exitDx=0;exitDy=0;" edge="1" parent="1" source="UpMeaNitS67zg2q9sJvJ-47" target="UpMeaNitS67zg2q9sJvJ-50">
          <mxGeometry width="50" height="50" relative="1" as="geometry">
            <mxPoint x="290" y="1380" as="sourcePoint" />
            <mxPoint x="340" y="1330" as="targetPoint" />
          </mxGeometry>
        </mxCell>
        <mxCell id="UpMeaNitS67zg2q9sJvJ-54" value="" style="endArrow=classic;html=1;rounded=0;exitX=1;exitY=0.5;exitDx=0;exitDy=0;entryX=0;entryY=0.5;entryDx=0;entryDy=0;" edge="1" parent="1" source="UpMeaNitS67zg2q9sJvJ-48" target="UpMeaNitS67zg2q9sJvJ-50">
          <mxGeometry width="50" height="50" relative="1" as="geometry">
            <mxPoint x="280" y="1440" as="sourcePoint" />
            <mxPoint x="330" y="1390" as="targetPoint" />
          </mxGeometry>
        </mxCell>
        <mxCell id="UpMeaNitS67zg2q9sJvJ-55" value="window 1 day 20" style="text;html=1;align=center;verticalAlign=middle;whiteSpace=wrap;rounded=0;" vertex="1" parent="1">
          <mxGeometry x="310" y="1375" width="160" height="30" as="geometry" />
        </mxCell>
        <mxCell id="UpMeaNitS67zg2q9sJvJ-65" style="edgeStyle=orthogonalEdgeStyle;rounded=0;orthogonalLoop=1;jettySize=auto;html=1;exitX=0.5;exitY=1;exitDx=0;exitDy=0;exitPerimeter=0;entryX=1;entryY=0.5;entryDx=0;entryDy=0;" edge="1" parent="1" source="UpMeaNitS67zg2q9sJvJ-56" target="UpMeaNitS67zg2q9sJvJ-64">
          <mxGeometry relative="1" as="geometry" />
        </mxCell>
        <mxCell id="UpMeaNitS67zg2q9sJvJ-56" value="Summariser 1&lt;div&gt;Summariser 2&lt;/div&gt;&lt;div&gt;Summariser 3&lt;/div&gt;" style="shape=cylinder3;whiteSpace=wrap;html=1;boundedLbl=1;backgroundOutline=1;size=15;fillColor=#e3c800;fontColor=#000000;strokeColor=#B09500;" vertex="1" parent="1">
          <mxGeometry x="840" y="400" width="170" height="220" as="geometry" />
        </mxCell>
        <mxCell id="UpMeaNitS67zg2q9sJvJ-57" style="edgeStyle=orthogonalEdgeStyle;rounded=0;orthogonalLoop=1;jettySize=auto;html=1;exitX=1;exitY=0.25;exitDx=0;exitDy=0;entryX=0;entryY=0.5;entryDx=0;entryDy=0;entryPerimeter=0;" edge="1" parent="1" source="UpMeaNitS67zg2q9sJvJ-8" target="UpMeaNitS67zg2q9sJvJ-56">
          <mxGeometry relative="1" as="geometry" />
        </mxCell>
        <mxCell id="UpMeaNitS67zg2q9sJvJ-60" value="Summariser 1" style="edgeLabel;html=1;align=center;verticalAlign=middle;resizable=0;points=[];" vertex="1" connectable="0" parent="UpMeaNitS67zg2q9sJvJ-57">
          <mxGeometry x="-0.0023" y="-5" relative="1" as="geometry">
            <mxPoint as="offset" />
          </mxGeometry>
        </mxCell>
        <mxCell id="UpMeaNitS67zg2q9sJvJ-58" value="" style="endArrow=classic;startArrow=classic;html=1;rounded=0;entryX=0;entryY=0.5;entryDx=0;entryDy=0;entryPerimeter=0;exitX=1;exitY=0.25;exitDx=0;exitDy=0;" edge="1" parent="1" source="UpMeaNitS67zg2q9sJvJ-32" target="UpMeaNitS67zg2q9sJvJ-56">
          <mxGeometry width="50" height="50" relative="1" as="geometry">
            <mxPoint x="410" y="560" as="sourcePoint" />
            <mxPoint x="460" y="510" as="targetPoint" />
          </mxGeometry>
        </mxCell>
        <mxCell id="UpMeaNitS67zg2q9sJvJ-61" value="summariser 1" style="edgeLabel;html=1;align=center;verticalAlign=middle;resizable=0;points=[];" vertex="1" connectable="0" parent="UpMeaNitS67zg2q9sJvJ-58">
          <mxGeometry x="-0.0147" relative="1" as="geometry">
            <mxPoint as="offset" />
          </mxGeometry>
        </mxCell>
        <mxCell id="UpMeaNitS67zg2q9sJvJ-59" style="edgeStyle=orthogonalEdgeStyle;rounded=0;orthogonalLoop=1;jettySize=auto;html=1;entryX=0.5;entryY=1;entryDx=0;entryDy=0;entryPerimeter=0;" edge="1" parent="1" source="UpMeaNitS67zg2q9sJvJ-38" target="UpMeaNitS67zg2q9sJvJ-56">
          <mxGeometry relative="1" as="geometry" />
        </mxCell>
        <mxCell id="UpMeaNitS67zg2q9sJvJ-69" value="Summariser 2" style="edgeLabel;html=1;align=center;verticalAlign=middle;resizable=0;points=[];" vertex="1" connectable="0" parent="UpMeaNitS67zg2q9sJvJ-59">
          <mxGeometry x="-0.4031" relative="1" as="geometry">
            <mxPoint as="offset" />
          </mxGeometry>
        </mxCell>
        <mxCell id="UpMeaNitS67zg2q9sJvJ-66" style="edgeStyle=orthogonalEdgeStyle;rounded=0;orthogonalLoop=1;jettySize=auto;html=1;entryX=1;entryY=0.25;entryDx=0;entryDy=0;" edge="1" parent="1" source="UpMeaNitS67zg2q9sJvJ-64" target="UpMeaNitS67zg2q9sJvJ-44">
          <mxGeometry relative="1" as="geometry" />
        </mxCell>
        <mxCell id="UpMeaNitS67zg2q9sJvJ-64" value="&lt;div&gt;&lt;font style=&quot;color: rgb(9, 9, 9);&quot;&gt;Summariser 1&lt;br&gt;+&lt;br&gt;Summariser 2&lt;br&gt;100 toekns&lt;/font&gt;&lt;/div&gt;" style="rounded=0;whiteSpace=wrap;html=1;fillColor=#e3c800;fontColor=#000000;strokeColor=#B09500;" vertex="1" parent="1">
          <mxGeometry x="670" y="1030" width="220" height="80" as="geometry" />
        </mxCell>
        <mxCell id="UpMeaNitS67zg2q9sJvJ-70" value="Chart 1&amp;nbsp;&lt;div&gt;........&lt;/div&gt;&lt;div&gt;chart 3&amp;nbsp;&lt;/div&gt;&lt;div&gt;chart 12&lt;/div&gt;&lt;div&gt;&lt;br&gt;&lt;/div&gt;" style="shape=cylinder3;whiteSpace=wrap;html=1;boundedLbl=1;backgroundOutline=1;size=15;fillColor=#e3c800;fontColor=#000000;strokeColor=#B09500;" vertex="1" parent="1">
          <mxGeometry x="-498" y="715" width="170" height="220" as="geometry" />
        </mxCell>
        <mxCell id="UpMeaNitS67zg2q9sJvJ-71" style="edgeStyle=orthogonalEdgeStyle;rounded=0;orthogonalLoop=1;jettySize=auto;html=1;exitX=0;exitY=0.5;exitDx=0;exitDy=0;entryX=0.999;entryY=0.364;entryDx=0;entryDy=0;entryPerimeter=0;" edge="1" parent="1" source="UpMeaNitS67zg2q9sJvJ-2" target="UpMeaNitS67zg2q9sJvJ-70">
          <mxGeometry relative="1" as="geometry" />
        </mxCell>
        <mxCell id="UpMeaNitS67zg2q9sJvJ-78" value="Chart 1&amp;nbsp;&lt;div&gt;1000 k&lt;/div&gt;" style="rounded=0;whiteSpace=wrap;html=1;fillColor=#e3c800;fontColor=#000000;strokeColor=#B09500;" vertex="1" parent="1">
          <mxGeometry x="130" y="190" width="120" height="40" as="geometry" />
        </mxCell>
        <mxCell id="UpMeaNitS67zg2q9sJvJ-90" style="edgeStyle=orthogonalEdgeStyle;rounded=0;orthogonalLoop=1;jettySize=auto;html=1;" edge="1" parent="1" source="UpMeaNitS67zg2q9sJvJ-79" target="UpMeaNitS67zg2q9sJvJ-89">
          <mxGeometry relative="1" as="geometry" />
        </mxCell>
        <mxCell id="UpMeaNitS67zg2q9sJvJ-79" value="Recall&amp;nbsp;" style="rounded=0;whiteSpace=wrap;html=1;fillColor=#e3c800;fontColor=#000000;strokeColor=#B09500;" vertex="1" parent="1">
          <mxGeometry x="-380" y="-350" width="120" height="40" as="geometry" />
        </mxCell>
        <mxCell id="UpMeaNitS67zg2q9sJvJ-80" value="Remember" style="rounded=0;whiteSpace=wrap;html=1;fillColor=#e3c800;fontColor=#000000;strokeColor=#B09500;" vertex="1" parent="1">
          <mxGeometry x="-90" y="-350" width="120" height="40" as="geometry" />
        </mxCell>
        <mxCell id="UpMeaNitS67zg2q9sJvJ-81" value="Forget" style="rounded=0;whiteSpace=wrap;html=1;fillColor=#e3c800;fontColor=#000000;strokeColor=#B09500;" vertex="1" parent="1">
          <mxGeometry x="140" y="-350" width="120" height="40" as="geometry" />
        </mxCell>
        <mxCell id="UpMeaNitS67zg2q9sJvJ-82" value="Summariser&amp;nbsp;" style="rounded=0;whiteSpace=wrap;html=1;fillColor=#e3c800;fontColor=#000000;strokeColor=#B09500;" vertex="1" parent="1">
          <mxGeometry x="530" y="-340" width="120" height="40" as="geometry" />
        </mxCell>
        <mxCell id="UpMeaNitS67zg2q9sJvJ-91" style="edgeStyle=orthogonalEdgeStyle;rounded=0;orthogonalLoop=1;jettySize=auto;html=1;exitX=0.927;exitY=0.526;exitDx=0;exitDy=0;exitPerimeter=0;" edge="1" parent="1" source="UpMeaNitS67zg2q9sJvJ-89" target="UpMeaNitS67zg2q9sJvJ-56">
          <mxGeometry relative="1" as="geometry">
            <mxPoint x="949.9299999999998" y="459.9000000000001" as="targetPoint" />
            <mxPoint x="-300.0000000000002" y="-180" as="sourcePoint" />
          </mxGeometry>
        </mxCell>
        <mxCell id="UpMeaNitS67zg2q9sJvJ-92" value="Greater&amp;nbsp; than 50" style="edgeLabel;html=1;align=center;verticalAlign=middle;resizable=0;points=[];" vertex="1" connectable="0" parent="UpMeaNitS67zg2q9sJvJ-91">
          <mxGeometry x="0.0639" y="-5" relative="1" as="geometry">
            <mxPoint as="offset" />
          </mxGeometry>
        </mxCell>
        <mxCell id="UpMeaNitS67zg2q9sJvJ-89" value="&lt;font style=&quot;color: rgb(17, 17, 17);&quot;&gt;Similarity score&amp;nbsp;&lt;/font&gt;" style="rhombus;whiteSpace=wrap;html=1;fillColor=#cce5ff;strokeColor=#36393d;" vertex="1" parent="1">
          <mxGeometry x="-405" y="-230" width="170" height="120" as="geometry" />
        </mxCell>
        <mxCell id="UpMeaNitS67zg2q9sJvJ-93" style="edgeStyle=orthogonalEdgeStyle;rounded=0;orthogonalLoop=1;jettySize=auto;html=1;exitX=0;exitY=0.5;exitDx=0;exitDy=0;entryX=0;entryY=0.5;entryDx=0;entryDy=0;entryPerimeter=0;" edge="1" parent="1" source="UpMeaNitS67zg2q9sJvJ-89" target="UpMeaNitS67zg2q9sJvJ-70">
          <mxGeometry relative="1" as="geometry" />
        </mxCell>
        <mxCell id="UpMeaNitS67zg2q9sJvJ-94" value="Lesser than 50&amp;nbsp;" style="edgeLabel;html=1;align=center;verticalAlign=middle;resizable=0;points=[];" vertex="1" connectable="0" parent="UpMeaNitS67zg2q9sJvJ-93">
          <mxGeometry x="-0.8754" relative="1" as="geometry">
            <mxPoint as="offset" />
          </mxGeometry>
        </mxCell>
      </root>
    </mxGraphModel>
  </diagram>
</mxfile>
